<svg width="776" height="432" viewBox="0 0 776 432" fill="none" xmlns="http://www.w3.org/2000/svg">
<g clip-path="url(#clip0_2_2)">
<rect width="776" height="432" fill="white"/>
<circle cx="517.766" cy="131.287" r="78.3529" transform="rotate(12.3332 517.766 131.287)" fill="#B8DFF4"/>
<g style="mix-blend-mode:color-burn">
<circle cx="463.495" cy="46.6435" r="69.098" transform="rotate(12.3332 463.495 46.6435)" stroke="#A7C9DC" stroke-width="4"/>
</g>
<g style="mix-blend-mode:color-burn">
<circle cx="468.756" cy="54.8488" r="75.9902" transform="rotate(12.3332 468.756 54.8488)" stroke="#A7C9DC" stroke-width="4"/>
</g>
<g style="mix-blend-mode:color-burn">
<circle cx="578.312" cy="71.7474" r="69.098" transform="rotate(12.3332 578.312 71.7474)" stroke="#A7C9DC" stroke-width="4"/>
</g>
<g style="mix-blend-mode:color-burn">
<circle cx="501.031" cy="207.832" r="69.098" transform="rotate(12.3332 501.031 207.832)" stroke="#A7C9DC" stroke-width="4"/>
</g>
<g style="mix-blend-mode:color-burn">
<circle cx="499.016" cy="217.045" r="64.0196" transform="rotate(12.3332 499.016 217.045)" stroke="#A7C9DC" stroke-width="4"/>
</g>
<path d="M559.569 194.836C567.574 211.439 594.439 236.769 637.863 205.271C681.287 173.772 702.513 206.781 707.697 227.223" stroke="#A7C9DC" stroke-width="4"/>
<rect x="311" y="359" width="6" height="112" transform="rotate(90 311 359)" fill="#C4C4C4"/>
<path d="M212 354C214.761 354 217 356.239 217 359L217 365C217 367.761 214.761 370 212 370L78 370C73.5817 370 70 366.418 70 362V362C70 357.582 73.5817 354 78 354L212 354Z" fill="#ADE3E7"/>
<path d="M306.868 375C301.604 367.374 312.691 369.467 314.509 367.673C315.206 365.353 313.721 365.146 311 365C307.42 364.808 301.701 365.136 296 365C296 359.715 300.866 359 306.868 359C312.87 359 323 359.098 323 364.383C323 369.669 311.623 374.551 306.868 375Z" fill="#C4C4C4"/>
<path d="M120.775 167.875C120.775 173.875 120.025 179.25 118.525 184C117.075 188.75 114.9 192.775 112 196.075C109.15 199.325 105.625 201.825 101.425 203.575C97.225 205.325 92.4 206.2 86.95 206.2C82 206.2 76.95 205.5 71.8 204.1C71.9 202.65 72.025 201.225 72.175 199.825C72.325 198.375 72.45 196.95 72.55 195.55C72.65 194.7 72.95 194.025 73.45 193.525C74 192.975 74.825 192.7 75.925 192.7C76.825 192.7 78 192.925 79.45 193.375C80.95 193.825 82.95 194.05 85.45 194.05C88.75 194.05 91.7 193.55 94.3 192.55C96.9 191.55 99.075 190 100.825 187.9C102.575 185.8 103.9 183.125 104.8 179.875C105.75 176.575 106.225 172.675 106.225 168.175V97.525H120.775V167.875ZM246.453 151.3C246.453 159.35 245.178 166.75 242.628 173.5C240.078 180.2 236.478 185.975 231.828 190.825C227.178 195.675 221.578 199.45 215.028 202.15C208.528 204.8 201.328 206.125 193.428 206.125C185.528 206.125 178.328 204.8 171.828 202.15C165.328 199.45 159.753 195.675 155.103 190.825C150.453 185.975 146.853 180.2 144.303 173.5C141.753 166.75 140.478 159.35 140.478 151.3C140.478 143.25 141.753 135.875 144.303 129.175C146.853 122.425 150.453 116.625 155.103 111.775C159.753 106.875 165.328 103.075 171.828 100.375C178.328 97.675 185.528 96.325 193.428 96.325C201.328 96.325 208.528 97.675 215.028 100.375C221.578 103.075 227.178 106.875 231.828 111.775C236.478 116.625 240.078 122.425 242.628 129.175C245.178 135.875 246.453 143.25 246.453 151.3ZM231.528 151.3C231.528 144.7 230.628 138.775 228.828 133.525C227.028 128.275 224.478 123.85 221.178 120.25C217.878 116.6 213.878 113.8 209.178 111.85C204.478 109.9 199.228 108.925 193.428 108.925C187.678 108.925 182.453 109.9 177.753 111.85C173.053 113.8 169.028 116.6 165.678 120.25C162.378 123.85 159.828 128.275 158.028 133.525C156.228 138.775 155.328 144.7 155.328 151.3C155.328 157.9 156.228 163.825 158.028 169.075C159.828 174.275 162.378 178.7 165.678 182.35C169.028 185.95 173.053 188.725 177.753 190.675C182.453 192.575 187.678 193.525 193.428 193.525C199.228 193.525 204.478 192.575 209.178 190.675C213.878 188.725 217.878 185.95 221.178 182.35C224.478 178.7 227.028 174.275 228.828 169.075C230.628 163.825 231.528 157.9 231.528 151.3ZM298.9 167.875C298.9 173.875 298.15 179.25 296.65 184C295.2 188.75 293.025 192.775 290.125 196.075C287.275 199.325 283.75 201.825 279.55 203.575C275.35 205.325 270.525 206.2 265.075 206.2C260.125 206.2 255.075 205.5 249.925 204.1C250.025 202.65 250.15 201.225 250.3 199.825C250.45 198.375 250.575 196.95 250.675 195.55C250.775 194.7 251.075 194.025 251.575 193.525C252.125 192.975 252.95 192.7 254.05 192.7C254.95 192.7 256.125 192.925 257.575 193.375C259.075 193.825 261.075 194.05 263.575 194.05C266.875 194.05 269.825 193.55 272.425 192.55C275.025 191.55 277.2 190 278.95 187.9C280.7 185.8 282.025 183.125 282.925 179.875C283.875 176.575 284.35 172.675 284.35 168.175V97.525H298.9V167.875ZM424.578 151.3C424.578 159.35 423.303 166.75 420.753 173.5C418.203 180.2 414.603 185.975 409.953 190.825C405.303 195.675 399.703 199.45 393.153 202.15C386.653 204.8 379.453 206.125 371.553 206.125C363.653 206.125 356.453 204.8 349.953 202.15C343.453 199.45 337.878 195.675 333.228 190.825C328.578 185.975 324.978 180.2 322.428 173.5C319.878 166.75 318.603 159.35 318.603 151.3C318.603 143.25 319.878 135.875 322.428 129.175C324.978 122.425 328.578 116.625 333.228 111.775C337.878 106.875 343.453 103.075 349.953 100.375C356.453 97.675 363.653 96.325 371.553 96.325C379.453 96.325 386.653 97.675 393.153 100.375C399.703 103.075 405.303 106.875 409.953 111.775C414.603 116.625 418.203 122.425 420.753 129.175C423.303 135.875 424.578 143.25 424.578 151.3ZM409.653 151.3C409.653 144.7 408.753 138.775 406.953 133.525C405.153 128.275 402.603 123.85 399.303 120.25C396.003 116.6 392.003 113.8 387.303 111.85C382.603 109.9 377.353 108.925 371.553 108.925C365.803 108.925 360.578 109.9 355.878 111.85C351.178 113.8 347.153 116.6 343.803 120.25C340.503 123.85 337.953 128.275 336.153 133.525C334.353 138.775 333.453 144.7 333.453 151.3C333.453 157.9 334.353 163.825 336.153 169.075C337.953 174.275 340.503 178.7 343.803 182.35C347.153 185.95 351.178 188.725 355.878 190.675C360.578 192.575 365.803 193.525 371.553 193.525C377.353 193.525 382.603 192.575 387.303 190.675C392.003 188.725 396.003 185.95 399.303 182.35C402.603 178.7 405.153 174.275 406.953 169.075C408.753 163.825 409.653 157.9 409.653 151.3ZM159.175 312.8C159.975 312.8 160.675 313.125 161.275 313.775L167.05 320C162.65 325.1 157.3 329.075 151 331.925C144.75 334.775 137.175 336.2 128.275 336.2C120.575 336.2 113.575 334.875 107.275 332.225C100.975 329.525 95.6 325.775 91.15 320.975C86.7 316.125 83.25 310.325 80.8 303.575C78.35 296.825 77.125 289.4 77.125 281.3C77.125 273.2 78.4 265.775 80.95 259.025C83.5 252.275 87.075 246.475 91.675 241.625C96.325 236.775 101.875 233.025 108.325 230.375C114.775 227.675 121.9 226.325 129.7 226.325C137.35 226.325 144.1 227.55 149.95 230C155.8 232.45 160.95 235.775 165.4 239.975L160.6 246.65C160.3 247.15 159.9 247.575 159.4 247.925C158.95 248.225 158.325 248.375 157.525 248.375C156.625 248.375 155.525 247.9 154.225 246.95C152.925 245.95 151.225 244.85 149.125 243.65C147.025 242.45 144.4 241.375 141.25 240.425C138.1 239.425 134.225 238.925 129.625 238.925C124.075 238.925 119 239.9 114.4 241.85C109.8 243.75 105.825 246.525 102.475 250.175C99.175 253.825 96.6 258.275 94.75 263.525C92.9 268.775 91.975 274.7 91.975 281.3C91.975 288 92.925 293.975 94.825 299.225C96.775 304.475 99.4 308.925 102.7 312.575C106.05 316.175 109.975 318.925 114.475 320.825C119.025 322.725 123.925 323.675 129.175 323.675C132.375 323.675 135.25 323.5 137.8 323.15C140.4 322.75 142.775 322.15 144.925 321.35C147.125 320.55 149.15 319.55 151 318.35C152.9 317.1 154.775 315.625 156.625 313.925C157.475 313.175 158.325 312.8 159.175 312.8ZM213.695 279.575C217.895 279.575 221.595 279.075 224.795 278.075C228.045 277.025 230.745 275.575 232.895 273.725C235.095 271.825 236.745 269.575 237.845 266.975C238.945 264.375 239.495 261.5 239.495 258.35C239.495 251.95 237.395 247.125 233.195 243.875C228.995 240.625 222.695 239 214.295 239H198.395V279.575H213.695ZM263.345 335H250.445C247.795 335 245.845 333.975 244.595 331.925L216.695 293.525C215.845 292.325 214.92 291.475 213.92 290.975C212.97 290.425 211.47 290.15 209.42 290.15H198.395V335H183.92V227.525H214.295C221.095 227.525 226.97 228.225 231.92 229.625C236.87 230.975 240.945 232.95 244.145 235.55C247.395 238.15 249.795 241.3 251.345 245C252.895 248.65 253.67 252.75 253.67 257.3C253.67 261.1 253.07 264.65 251.87 267.95C250.67 271.25 248.92 274.225 246.62 276.875C244.37 279.475 241.595 281.7 238.295 283.55C235.045 285.4 231.345 286.8 227.195 287.75C229.045 288.8 230.645 290.325 231.995 292.325L263.345 335ZM335.038 295.1L318.163 251.375C317.663 250.075 317.138 248.575 316.588 246.875C316.038 245.125 315.513 243.275 315.013 241.325C313.963 245.375 312.888 248.75 311.788 251.45L294.913 295.1H335.038ZM365.338 335H354.088C352.788 335 351.738 334.675 350.938 334.025C350.138 333.375 349.538 332.55 349.138 331.55L339.088 305.6H290.863L280.813 331.55C280.513 332.45 279.938 333.25 279.088 333.95C278.238 334.65 277.188 335 275.938 335H264.688L307.663 227.525H322.363L365.338 335ZM394.027 239.375V276.95H438.202V288.8H394.027V335H379.477V227.525H445.702V239.375H394.027ZM536.966 239.75H502.166V335H487.691V239.75H452.816V227.525H536.966V239.75ZM607.45 244.325C607 245.075 606.5 245.65 605.95 246.05C605.45 246.4 604.825 246.575 604.075 246.575C603.225 246.575 602.225 246.15 601.075 245.3C599.925 244.45 598.475 243.525 596.725 242.525C595.025 241.475 592.95 240.525 590.5 239.675C588.1 238.825 585.175 238.4 581.725 238.4C578.475 238.4 575.6 238.85 573.1 239.75C570.65 240.6 568.575 241.775 566.875 243.275C565.225 244.775 563.975 246.55 563.125 248.6C562.275 250.6 561.85 252.775 561.85 255.125C561.85 258.125 562.575 260.625 564.025 262.625C565.525 264.575 567.475 266.25 569.875 267.65C572.325 269.05 575.075 270.275 578.125 271.325C581.225 272.325 584.375 273.375 587.575 274.475C590.825 275.575 593.975 276.825 597.025 278.225C600.125 279.575 602.875 281.3 605.275 283.4C607.725 285.5 609.675 288.075 611.125 291.125C612.625 294.175 613.375 297.925 613.375 302.375C613.375 307.075 612.575 311.5 610.975 315.65C609.375 319.75 607.025 323.325 603.925 326.375C600.875 329.425 597.1 331.825 592.6 333.575C588.15 335.325 583.075 336.2 577.375 336.2C570.375 336.2 564.025 334.95 558.325 332.45C552.625 329.9 547.75 326.475 543.7 322.175L547.9 315.275C548.3 314.725 548.775 314.275 549.325 313.925C549.925 313.525 550.575 313.325 551.275 313.325C551.925 313.325 552.65 313.6 553.45 314.15C554.3 314.65 555.25 315.3 556.3 316.1C557.35 316.9 558.55 317.775 559.9 318.725C561.25 319.675 562.775 320.55 564.475 321.35C566.225 322.15 568.2 322.825 570.4 323.375C572.6 323.875 575.075 324.125 577.825 324.125C581.275 324.125 584.35 323.65 587.05 322.7C589.75 321.75 592.025 320.425 593.875 318.725C595.775 316.975 597.225 314.9 598.225 312.5C599.225 310.1 599.725 307.425 599.725 304.475C599.725 301.225 598.975 298.575 597.475 296.525C596.025 294.425 594.1 292.675 591.7 291.275C589.3 289.875 586.55 288.7 583.45 287.75C580.35 286.75 577.2 285.75 574 284.75C570.8 283.7 567.65 282.5 564.55 281.15C561.45 279.8 558.7 278.05 556.3 275.9C553.9 273.75 551.95 271.075 550.45 267.875C549 264.625 548.275 260.625 548.275 255.875C548.275 252.075 549 248.4 550.45 244.85C551.95 241.3 554.1 238.15 556.9 235.4C559.75 232.65 563.225 230.45 567.325 228.8C571.475 227.15 576.225 226.325 581.575 226.325C587.575 226.325 593.025 227.275 597.925 229.175C602.875 231.075 607.225 233.825 610.975 237.425L607.45 244.325Z" fill="#D198DF"/>
</g>
<defs>
<clipPath id="clip0_2_2">
<rect width="776" height="432" fill="white"/>
</clipPath>
</defs>
</svg>
